<?xml version="1.0" encoding="UTF-8"?>
<svg id="Layer_1" data-name="Layer 1" xmlns="http://www.w3.org/2000/svg" xmlns:xlink="http://www.w3.org/1999/xlink" viewBox="0 0 650.67 1402">
  <defs>
    <style>
      .cls-1 {
        fill: #e9d4d4;
      }

      .cls-2 {
        fill: none;
        stroke: #e9d4d4;
        stroke-linecap: round;
        stroke-miterlimit: 10;
        stroke-width: 5px;
      }
    </style>
  </defs>
  <image width="6000" height="4000" transform="scale(.11 .35)" xlink:href="bg-stars-zwei.jpg"/>
  <rect class="cls-1" x="549.33" y="15.85" width="56.03" height="46.45" rx="16.92" ry="16.92"/>
  <rect class="cls-1" x="549.33" y="76.1" width="56.03" height="46.45" rx="16.92" ry="16.92"/>
  <rect class="cls-1" x="549.33" y="136.36" width="56.03" height="46.45" rx="16.92" ry="16.92"/>
  <rect class="cls-1" x="549.33" y="196.61" width="56.03" height="46.45" rx="16.92" ry="16.92"/>
  <rect class="cls-1" x="549.33" y="256.86" width="56.03" height="46.45" rx="16.92" ry="16.92"/>
  <rect class="cls-1" x="549.33" y="317.12" width="56.03" height="46.45" rx="16.92" ry="16.92"/>
  <rect class="cls-1" x="549.33" y="377.37" width="56.03" height="46.45" rx="16.92" ry="16.92"/>
  <rect class="cls-1" x="549.33" y="437.62" width="56.03" height="46.45" rx="16.92" ry="16.92"/>
  <rect class="cls-1" x="549.33" y="497.88" width="56.03" height="46.45" rx="16.92" ry="16.92"/>
  <rect class="cls-1" x="549.33" y="558.13" width="56.03" height="46.45" rx="16.92" ry="16.92"/>
  <rect class="cls-1" x="549.33" y="618.84" width="56.03" height="46.45" rx="16.92" ry="16.92"/>
  <rect class="cls-1" x="549.33" y="680.25" width="56.03" height="46.45" rx="16.92" ry="16.92"/>
  <rect class="cls-1" x="549.33" y="740.5" width="56.03" height="46.45" rx="16.92" ry="16.92"/>
  <rect class="cls-1" x="549.33" y="800.76" width="56.03" height="46.45" rx="16.92" ry="16.92"/>
  <rect class="cls-1" x="549.33" y="861.01" width="56.03" height="46.45" rx="16.92" ry="16.92"/>
  <rect class="cls-1" x="549.33" y="921.26" width="56.03" height="46.45" rx="16.92" ry="16.92"/>
  <rect class="cls-1" x="549.33" y="981.52" width="56.03" height="46.45" rx="16.92" ry="16.92"/>
  <rect class="cls-1" x="549.33" y="1041.77" width="56.03" height="46.45" rx="16.92" ry="16.92"/>
  <rect class="cls-1" x="549.33" y="1102.02" width="56.03" height="46.45" rx="16.92" ry="16.92"/>
  <rect class="cls-1" x="549.33" y="1162.28" width="56.03" height="46.45" rx="16.92" ry="16.92"/>
  <rect class="cls-1" x="549.33" y="1222.53" width="56.03" height="46.45" rx="16.92" ry="16.92"/>
  <rect class="cls-1" x="549.33" y="1283.24" width="56.03" height="46.45" rx="16.92" ry="16.92"/>
  <rect class="cls-1" x="549.33" y="1342.88" width="56.03" height="46.45" rx="16.92" ry="16.92"/>
  <rect class="cls-1" x="51.98" y="15.85" width="56.03" height="46.45" rx="16.92" ry="16.92"/>
  <rect class="cls-1" x="51.98" y="76.1" width="56.03" height="46.45" rx="16.92" ry="16.92"/>
  <rect class="cls-1" x="51.98" y="136.36" width="56.03" height="46.45" rx="16.92" ry="16.92"/>
  <rect class="cls-1" x="51.98" y="196.61" width="56.03" height="46.45" rx="16.92" ry="16.92"/>
  <rect class="cls-1" x="51.98" y="256.86" width="56.03" height="46.45" rx="16.92" ry="16.92"/>
  <rect class="cls-1" x="51.98" y="317.12" width="56.03" height="46.45" rx="16.92" ry="16.92"/>
  <rect class="cls-1" x="51.98" y="377.37" width="56.03" height="46.45" rx="16.92" ry="16.92"/>
  <rect class="cls-1" x="51.98" y="437.62" width="56.03" height="46.45" rx="16.92" ry="16.92"/>
  <rect class="cls-1" x="51.98" y="497.88" width="56.03" height="46.45" rx="16.92" ry="16.92"/>
  <rect class="cls-1" x="51.98" y="558.13" width="56.03" height="46.45" rx="16.92" ry="16.92"/>
  <rect class="cls-1" x="51.98" y="618.84" width="56.03" height="46.45" rx="16.92" ry="16.92"/>
  <rect class="cls-1" x="51.98" y="680.25" width="56.03" height="46.45" rx="16.92" ry="16.92"/>
  <rect class="cls-1" x="51.98" y="740.5" width="56.03" height="46.45" rx="16.92" ry="16.92"/>
  <rect class="cls-1" x="51.98" y="800.76" width="56.03" height="46.45" rx="16.92" ry="16.92"/>
  <rect class="cls-1" x="51.98" y="861.01" width="56.03" height="46.45" rx="16.92" ry="16.92"/>
  <rect class="cls-1" x="51.98" y="921.26" width="56.03" height="46.45" rx="16.92" ry="16.92"/>
  <rect class="cls-1" x="51.98" y="981.52" width="56.03" height="46.45" rx="16.92" ry="16.92"/>
  <rect class="cls-1" x="51.98" y="1041.77" width="56.03" height="46.45" rx="16.92" ry="16.92"/>
  <rect class="cls-1" x="51.98" y="1102.02" width="56.03" height="46.45" rx="16.92" ry="16.92"/>
  <rect class="cls-1" x="51.98" y="1162.28" width="56.03" height="46.45" rx="16.92" ry="16.92"/>
  <rect class="cls-1" x="51.98" y="1222.53" width="56.03" height="46.45" rx="16.92" ry="16.92"/>
  <rect class="cls-1" x="51.98" y="1283.24" width="56.03" height="46.45" rx="16.92" ry="16.92"/>
  <rect class="cls-1" x="51.98" y="1342.88" width="56.03" height="46.45" rx="16.92" ry="16.92"/>
  <line class="cls-2" x1="119.5" y1="68.34" x2="533.5" y2="68.34"/>
  <line class="cls-2" x1="119.5" y1="373.34" x2="533.5" y2="373.34"/>
  <line class="cls-2" x1="119.5" y1="732.34" x2="533.5" y2="732.34"/>
  <line class="cls-2" x1="119.5" y1="1097.67" x2="533.5" y2="1097.67"/>
</svg>